<svg style="fill: #ffffff;" xmlns="http://www.w3.org/2000/svg" xml:space="preserve" viewBox="208.08 325.15 607.82 117.68">
    <path d="M330.07 426.08h23.808v-28.858h39.799v-18.397H330.07Zm0-84.168v18.397h63.607v-18.39zm93.96.008v84.168h23.808V341.92ZM541 399.63c5.17-2.525 9.258-6.012 12.144-10.581 2.886-4.57 4.329-9.86 4.329-15.992 0-6.253-1.563-11.784-4.57-16.473-3.126-4.69-7.454-8.297-12.986-10.822-5.65-2.525-12.264-3.848-19.84-3.848H481.6v18.757h37.034c4.81 0 8.537 1.082 11.062 3.247 2.405 2.164 3.728 5.29 3.728 9.138 0 3.968-1.323 6.974-3.727 9.138-2.525 2.164-6.253 3.126-11.062 3.126h-37.03v40.76h23.808v-22.365h12.986l15.27 22.365h25.49zm113.04-57.71h-66.733v18.397h66.733zm0 32.585h-66.733v17.796h66.733zm-66.733 33.186v18.39h66.733v-18.397zm97.483-65.771v84.168h63.968v-18.88h-40.16v-65.29zm89.97 0v84.168h63.968v-18.88h-40.16v-65.29z" transform="translate(-22.836 .026)" />
    <path style="fill: #ff5a19; stroke-width: 0,60000002" d="M276.48 325.15c-.006-.007-.416.215-.91.491-.494.277-1.281.725-1.75.996a118.945 118.945 0 0 0-3.37 2.03 93.46 93.46 0 0 0-3.403 2.258 78.672 78.672 0 0 0-3.142 2.345 81.73 81.73 0 0 0-1.116.91c-.29.244-.708.6-.928.794-.22.194-.663.592-.984.886a57.556 57.556 0 0 0-2.9 2.904c-.3.33-.772.87-1.049 1.197-.278.328-.713.861-.967 1.185a48.88 48.88 0 0 0-.9 1.188c-.24.33-.657.93-.926 1.334a44 44 0 0 0-.94 1.485 47.81 47.81 0 0 0-.737 1.276 45.6 45.6 0 0 0-1.276 2.553c-.14.307-.363.82-.496 1.142a43.805 43.805 0 0 0-.867 2.301 41.784 41.784 0 0 0-1.05 3.687 48.819 48.819 0 0 0-.467 2.284c-.055.322-.146.892-.2 1.268a54.988 54.988 0 0 0-.184 1.435 54.509 54.509 0 0 0-.15 1.601 60.72 60.72 0 0 0-.1 1.613 68.051 68.051 0 0 0-.035 2.318c0 .856.015 1.88.033 2.274.018.395.048.965.067 1.268a75.135 75.135 0 0 0 .219 2.602 74.584 74.584 0 0 0 .317 2.535 84.809 84.809 0 0 0 .586 3.503c.082.431.232 1.172.334 1.646.101.474.176.87.167.878-.009.01-.22-.13-.467-.311a23.55 23.55 0 0 1-.895-.694c-.243-.2-.76-.68-1.147-1.067a21 21 0 0 1-1.05-1.118 27.81 27.81 0 0 1-.64-.815 19.683 19.683 0 0 1-.573-.818 27.085 27.085 0 0 1-.503-.802 22.217 22.217 0 0 1-1.09-2.169 27.57 27.57 0 0 1-.42-1.067 25.59 25.59 0 0 1-.357-1.066 28.846 28.846 0 0 1-.286-1.024c-.072-.28-.19-.806-.263-1.17a28.805 28.805 0 0 1-.383-2.578 33.98 33.98 0 0 1-.09-1.18 35.78 35.78 0 0 1-.02-2.084c.01-.852.04-1.67.07-2.04.03-.34.084-.88.122-1.201.038-.322.1-.792.136-1.045.037-.253.06-.479.052-.5-.008-.022-.269.215-.578.527-.31.312-.757.8-.995 1.084-.237.285-.61.758-.829 1.051-.218.294-.581.811-.806 1.151-.225.34-.566.88-.758 1.201-.192.321-.47.801-.617 1.068-.147.265-.403.746-.57 1.067a42.901 42.901 0 0 0-1.158 2.435 60.079 60.079 0 0 0-1.31 3.286 65.551 65.551 0 0 0-.535 1.551 56.92 56.92 0 0 0-.823 2.753 61.453 61.453 0 0 0-.413 1.62 59.58 59.58 0 0 0-.368 1.666c-.09.449-.211 1.08-.267 1.4a48.1 48.1 0 0 0-.368 2.552c-.037.331-.091.88-.119 1.219a37.87 37.87 0 0 0-.081 1.542 25.956 25.956 0 0 0 .065 2.9c.02.208.074.653.118.988.045.336.134.892.197 1.237.063.344.177.895.253 1.224a31.763 31.763 0 0 0 .746 2.608 31.255 31.255 0 0 0 .886 2.261 34.677 34.677 0 0 0 1.156 2.31c.141.252.37.646.508.876a35.581 35.581 0 0 0 1.183 1.834 48.122 48.122 0 0 0 1.626 2.187 61.034 61.034 0 0 0 1.546 1.85c.201.23.562.634.801.9.24.265.683.746.985 1.067a451.4 451.4 0 0 0 4.104 4.154 512.668 512.668 0 0 1 4.14 4.187 73.693 73.693 0 0 1 3.336 3.736c.175.211.46.564.634.784a53.96 53.96 0 0 1 1.383 1.835 42.411 42.411 0 0 1 1.324 1.985c.176.284.45.74.607 1.012a34.459 34.459 0 0 1 1.286 2.45c.166.354.405.887.531 1.185a34.313 34.313 0 0 1 1.222 3.426 36.228 36.228 0 0 1 .58 2.318c.073.35.186.955.252 1.346.065.392.156 1.007.2 1.368.046.36.106.904.133 1.207.027.302.067.825.087 1.16.021.335.048 1.066.06 1.624l.022 1.015.417-.184c.23-.101.635-.283.9-.403a76.29 76.29 0 0 0 3.136-1.527c.432-.225 1.025-.54 1.318-.7a87.998 87.998 0 0 0 2.302-1.313 74.403 74.403 0 0 0 4.033-2.6c.333-.231.822-.578 1.088-.77a78.17 78.17 0 0 0 2.736-2.088c.412-.331 1.05-.857 1.417-1.167.367-.311.925-.795 1.24-1.076a88.52 88.52 0 0 0 1.084-.986 76.835 76.835 0 0 0 2.743-2.712c.314-.33.807-.86 1.095-1.176a70.86 70.86 0 0 0 2.147-2.493c.24-.294.648-.807.909-1.141a66.719 66.719 0 0 0 1.746-2.362 70.343 70.343 0 0 0 1.536-2.302 63.944 63.944 0 0 0 1.252-2.068c.147-.257.384-.677.526-.934a58.763 58.763 0 0 0 1.425-2.768 57.795 57.795 0 0 0 1.184-2.636 60.022 60.022 0 0 0 1.078-2.806 55.65 55.65 0 0 0 .502-1.491c.13-.408.34-1.109.469-1.558.128-.45.321-1.17.43-1.601.108-.432.256-1.055.33-1.385.073-.33.185-.863.25-1.184.063-.322.169-.892.234-1.268.064-.376.162-.992.217-1.367.054-.377.13-.94.167-1.251.037-.312.098-.876.135-1.251.037-.377.089-1 .116-1.385.027-.385.067-1.12.089-1.634a57.65 57.65 0 0 0 .02-2.686c-.011-.963-.036-2-.055-2.302-.02-.303-.058-.843-.086-1.2a45.037 45.037 0 0 0-.119-1.252c-.037-.33-.112-.9-.166-1.267a42.826 42.826 0 0 0-.217-1.301 39.901 39.901 0 0 0-.218-1.085 37.822 37.822 0 0 0-.5-1.985 45.911 45.911 0 0 0-.303-1 36.158 36.158 0 0 0-.385-1.135c-.118-.33-.34-.908-.493-1.284a40.504 40.504 0 0 0-.53-1.243c-.14-.307-.384-.818-.542-1.134a46.39 46.39 0 0 0-.605-1.16 41.922 41.922 0 0 0-.686-1.2c-.203-.34-.529-.865-.724-1.168a50.518 50.518 0 0 0-.75-1.117c-.216-.312-.588-.83-.826-1.151a54.838 54.838 0 0 0-2.13-2.656c-.3-.35-.77-.883-1.043-1.184-.274-.3-.846-.915-1.273-1.364a103.74 103.74 0 0 0-1.888-1.919c-.612-.605-2.059-2-3.215-3.101-1.156-1.1-2.58-2.474-3.164-3.052a87.596 87.596 0 0 1-1.722-1.753 69.74 69.74 0 0 1-1.001-1.084 39.131 39.131 0 0 1-1.43-1.71 32.763 32.763 0 0 1-.575-.76 25.884 25.884 0 0 1-1.139-1.716c-.12-.203-.323-.563-.45-.801-.127-.239-.318-.62-.423-.848a19.518 19.518 0 0 1-.353-.817 16.265 16.265 0 0 1-.596-1.854 18.42 18.42 0 0 1-.17-.785 16.91 16.91 0 0 1-.117-.752 18.625 18.625 0 0 1-.087-1 13.37 13.37 0 0 1-.016-1.117c.011-.275.044-.733.071-1.017.028-.285.095-.78.149-1.101a19.106 19.106 0 0 1 .533-2.235c.075-.248.234-.72.353-1.047.12-.329.336-.877.482-1.219a32.966 32.966 0 0 1 1.362-2.768c.189-.337.494-.863.679-1.168a42.922 42.922 0 0 1 1.364-2.118c.164-.236.293-.434.286-.44z" transform="translate(-22.836 .026)" />
</svg>